# xmcd CD database file
#
# Track frame offsets:
#	183
#	12605
#	24325
#	38438
#	52065
#	65855
#	78805
#	92288
#	105898
#	118615
#	132393
#	145023
#	159688
#	174260
#	188930
#	202085
#	215533
#	229288
#	244500
#	259523
#	274045
#	288343
#	301295
#
# Disc length: 4172 seconds
#
# Revision: 0
# Processed by: cddbd v1.4PL0 Copyright (c) Steve Scherf et al.
# Submitted via: CDex 1.50beta10
#
DISCID=3b104a17
DTITLE=Billie Holiday - The Voice Of Jazz - The Complete Recordings 1933-1940
DYEAR=1991
DGENRE=Jazz
TTITLE0=Your Mother's Son-In-Law
TTITLE1=Riffin' The Scotch
TTITLE2=I Wished On The Moon
TTITLE3=What A Little Moonlight Can Do
TTITLE4=Miss Brown To You
TTITLE5=A Sunbonnet Blue
TTITLE6=What A Night, What A Moon, What A Girl
TTITLE7=I'm Painting The Town Red
TTITLE8=It's Too Hot For Words
TTITLE9=24 Hours A Day
TTITLE10=Yankee Doodle Never Went To Town
TTITLE11=Eeny Meeny Miney Mo
TTITLE12=If You Were Mine
TTITLE13=These 'n' That 'n' Those
TTITLE14=You Let Me Down
TTITLE15=Spreadin' Rhythm Around
TTITLE16=Life Begins When You're In Love
TTITLE17=It's Like Reaching For The Moon
TTITLE18=These Foolish Things
TTITLE19=I Cried For You
TTITLE20=Guess Who?
TTITLE21=Did I Remember
TTITLE22=No Regrets
EXTD=YEAR: 1991
EXTT0=
EXTT1=
EXTT2=
EXTT3=
EXTT4=
EXTT5=
EXTT6=
EXTT7=
EXTT8=
EXTT9=
EXTT10=
EXTT11=
EXTT12=
EXTT13=
EXTT14=
EXTT15=
EXTT16=
EXTT17=
EXTT18=
EXTT19=
EXTT20=
EXTT21=
EXTT22=
PLAYORDER=
